<?xml version="1.0" encoding="UTF-8"?>
<svg id="Layer_2" data-name="Layer 2" xmlns="http://www.w3.org/2000/svg" xmlns:xlink="http://www.w3.org/1999/xlink" viewBox="0 0 608 621.99">
  <defs>
    <style>
      .cls-1 {
        font-size: 44.31px;
      }

      .cls-1, .cls-2 {
        fill: #fff;
      }

      .cls-1, .cls-3 {
        font-family: Poppins-ExtraBold, Poppins;
        font-weight: 700;
      }

      .cls-4 {
        fill: url(#radial-gradient);
      }

      .cls-5 {
        fill: url(#radial-gradient-3);
      }

      .cls-3 {
        fill: #27286c;
        font-size: 50.94px;
      }

      .cls-6 {
        fill: #233f94;
      }

      .cls-7 {
        fill: url(#radial-gradient-2);
      }

      .cls-8 {
        fill: #427bbf;
      }

      .cls-9 {
        fill: #ffc615;
      }

      .cls-10 {
        fill: #2a2b6a;
      }

      .cls-11 {
        fill: #354fa2;
      }
    </style>
    <radialGradient id="radial-gradient" cx="304" cy="304" fx="304" fy="304" r="304" gradientUnits="userSpaceOnUse">
      <stop offset=".49" stop-color="#fff"/>
      <stop offset=".99" stop-color="#60cae6"/>
    </radialGradient>
    <radialGradient id="radial-gradient-2" cx="303.87" cy="303.73" fx="303.87" fy="303.73" r="208.9" gradientUnits="userSpaceOnUse">
      <stop offset=".49" stop-color="#fff"/>
      <stop offset=".99" stop-color="#60cae6"/>
    </radialGradient>
    <radialGradient id="radial-gradient-3" cx="303.87" cy="303.73" fx="303.87" fy="303.73" r="208.9" xlink:href="#radial-gradient"/>
  </defs>
  <g id="Layer_2-2" data-name="Layer 2">
    <circle class="cls-4" cx="304" cy="304" r="304"/>
    <circle class="cls-2" cx="303.87" cy="303.73" r="292.99"/>
    <text class="cls-1" transform="translate(138.64 142.05) rotate(-41.61)"><tspan x="0" y="0">G</tspan></text>
    <text class="cls-1" transform="translate(169.93 115.78) rotate(-34.01)"><tspan x="0" y="0">I</tspan></text>
    <text class="cls-1" transform="translate(187.05 103.98) rotate(-26.38)"><tspan x="0" y="0">G</tspan></text>
    <text class="cls-1" transform="translate(223.7 86.47) rotate(-16.38)"><tspan x="0" y="0">A</tspan></text>
    <text class="cls-1" transform="translate(262.65 75.87) rotate(-7.28)"><tspan x="0" y="0">V</tspan></text>
    <text class="cls-1" transform="translate(302.7 71.9) rotate(2.11)"><tspan x="0" y="0">E</tspan></text>
    <text class="cls-1" transform="translate(334.05 73.39) rotate(10.44)"><tspan x="0" y="0">R</tspan></text>
    <text class="cls-1" transform="translate(369.47 80.52) rotate(19.16)"><tspan x="0" y="0">S</tspan></text>
    <text class="cls-1" transform="translate(401.85 92.66) rotate(26.01)"><tspan x="0" y="0">I</tspan></text>
    <text class="cls-1" transform="translate(420.58 101.84) rotate(32.76)"><tspan x="0" y="0">T</tspan></text>
    <text class="cls-1" transform="translate(448.69 120.35) rotate(41.64)"><tspan x="0" y="0">Y</tspan></text>
    <circle class="cls-7" cx="303.87" cy="303.73" r="208.9"/>
    <g>
      <g>
        <path class="cls-10" d="M304.37,350.18c-4.78,0-9.55,0-14.33,0-3.46,0-5.82-2.41-5.83-5.85,0-2.55.05-5.11-.11-7.65-.2-3-1.63-5.43-3.96-7.33-9.51-7.79-14.44-17.81-14.63-30.05-.28-18.43,13.29-34.89,31.51-38.2,12.96-2.35,24.4.97,34.09,9.85,5.81,5.32,9.57,11.93,11.26,19.62,2.33,10.62.53,20.55-5.35,29.71-2.19,3.42-4.94,6.37-8.12,8.91-2.85,2.27-4.24,5.24-4.26,8.85-.01,2.15,0,4.31,0,6.46,0,3.23-2.46,5.67-5.72,5.68-4.85,0-9.69,0-14.54,0ZM294.58,347.13c0-.34,0-.59,0-.84,0-3.3,0-6.6,0-9.9,0-1.99.82-3.58,2.44-4.74.37-.27.8-.47,1.21-.71-.02-.12-.03-.21-.06-.3-.96-2.96-1.93-5.92-2.87-8.88-.13-.42-.32-.53-.75-.51-3.81.18-6.87-1.98-7.97-5.61-.13-.44-.3-.56-.77-.57-4.63-.03-8.03-3.61-7.79-8.21.05-.9.32-1.78.49-2.71-2.93-1.43-4.67-3.77-4.68-7.11-.01-3.37,1.75-5.73,4.76-7.2-.04-.14-.07-.25-.11-.36-1.86-5.3,1.72-10.43,7.35-10.52.48,0,.62-.18.75-.6,1-3.3,3.87-5.52,7.23-5.61,4.47-.12,8,3.36,8.01,7.92,0,9.41,0,18.83,0,28.24,0,.32,0,.64,0,1h5.22c0-.34,0-.63,0-.93,0-9.39,0-18.78,0-28.17,0-.61.03-1.22.15-1.81.73-3.56,3.7-6.09,7.28-6.24,3.56-.15,6.72,2.09,7.77,5.54.16.52.37.66.91.67,4.33.03,7.74,3.45,7.68,7.76-.01,1.03-.28,2.06-.45,3.16,2.89,1.42,4.64,3.79,4.63,7.15,0,3.36-1.78,5.71-4.76,7.17.03.12.05.19.07.26,1.94,5.36-1.64,10.54-7.35,10.6-.47,0-.57.18-.69.57-1.07,3.6-4.29,5.86-7.98,5.6-.45-.03-.61.12-.73.52-.87,2.72-1.76,5.43-2.64,8.14-.11.35-.21.7-.32,1.05,2.71,1.26,3.76,3.37,3.68,6.21-.08,3.02-.02,6.04-.02,9.06,0,.27,0,.55,0,.91,1.56,0,3.03,0,4.5,0,1.72,0,2.77-1.05,2.77-2.76,0-2.11-.06-4.22.02-6.32.05-1.28.19-2.57.48-3.82.79-3.3,2.87-5.71,5.42-7.91,10.07-8.71,14.2-19.76,12.32-32.86-1.18-8.23-5.08-15.2-11.31-20.75-8.57-7.63-18.65-10.6-30-8.78-9.14,1.47-16.63,5.97-22.3,13.25-6.58,8.45-8.9,18.05-6.96,28.56,1.6,8.66,6.03,15.68,12.88,21.23,3.07,2.49,4.84,5.73,5.08,9.67.16,2.61.07,5.24.1,7.86.02,1.44.99,2.53,2.43,2.59,1.57.07,3.15.01,4.85.01ZM314.89,285.18c.2-.02.32-.04.43-.05,1.95-.22,3.56-1.62,4.05-3.51.48-1.87-.3-3.9-1.94-4.98-1.52-1-3.13-1.12-4.75-.28-1.72.89-2.56,2.37-2.57,4.29-.02,4.26,0,8.52,0,12.78,0,.17.04.34.07.52,4.52-1.28,8.68,1.32,8.15,5.08h-2.92c-.03-.1-.06-.17-.08-.23-.3-1.48-1.38-2.38-2.74-2.31-1.38.08-2.46,1.17-2.47,2.67-.03,4.85-.04,9.69.01,14.54.02,2.17,1.65,4.02,3.68,4.42,2.19.43,4.34-.63,5.27-2.61.9-1.93.41-4.26-1.35-5.55-.8-.59-1.82-.88-2.83-1.34v-2.75c.14-.01.23-.03.32-.03,3.29.17,6.07,2.35,7.01,5.49.12.42.24.69.77.7,2.36.04,4.46-1.74,4.74-4.06.3-2.45-1.27-4.68-3.64-5.18-.31-.07-.63-.12-.92-.17v-3c1.76.05,3.29.56,4.63,1.6.36.28.66.34,1.08.19,1.98-.72,3.29-2.82,3.03-4.88-.28-2.23-1.97-3.91-4.15-4.13-1.56-.16-2.86.37-4,1.47-.77-.69-1.52-1.35-2.28-2.03,1.38-1.48,3.01-2.28,4.93-2.48.44-.04.67-.2.86-.57,1.55-3.04-.75-6.77-4.18-6.77-.5,0-.73.14-.88.65-.76,2.52-2.41,4.25-4.9,5.13-.77.27-1.61.34-2.46.51v-3.12ZM285.69,302.63c-.27.05-.5.09-.73.13-2.41.45-4.06,2.51-3.89,4.85.18,2.47,2.07,4.29,4.56,4.41.53.03.83-.09,1-.68.64-2.25,2.1-3.84,4.21-4.83.98-.46,2.01-.73,3.14-.64v2.96c-.3.05-.57.09-.84.14-2.54.51-4.12,2.86-3.69,5.46.4,2.39,2.78,4.07,5.25,3.73,2.38-.33,4.04-2.29,4.05-4.82.01-4.64,0-9.27,0-13.91,0-.28-.03-.56-.08-.84-.32-1.72-2.21-2.62-3.76-1.81-.89.46-1.3,1.24-1.44,2.2h-3.03c.04-1.68.66-3.04,1.86-4.1,1.9-1.67,4.07-1.86,6.41-.91.02-.3.04-.51.04-.72,0-4.17,0-8.33,0-12.5,0-.3-.03-.61-.07-.91-.28-2.15-2.08-3.85-4.26-4.03-2.18-.17-4.17,1.18-4.85,3.3-.66,2.04.21,4.33,2.12,5.37.68.37,1.47.54,2.27.82v2.85c-.19,0-.32.02-.46.02-3.08-.09-5.97-2.39-6.89-5.54-.15-.51-.39-.65-.88-.65-3.43,0-5.74,3.75-4.18,6.78.19.37.42.52.86.57,1.93.2,3.58,1,4.92,2.49-.78.69-1.51,1.34-2.26,2-.16-.13-.28-.23-.4-.33-2.03-1.7-4.97-1.48-6.64.48-1.69,1.99-1.46,4.88.53,6.61,1.15,1,1.75,1.05,2.99.25.08-.05.16-.1.24-.15,1.2-.68,2.47-1.07,3.91-1.05v2.99ZM311.17,347.08c.01-.27.04-.5.04-.72,0-3.25,0-6.51,0-9.76,0-1.86-1.05-2.91-2.93-2.92-2.56,0-5.13,0-7.69,0-1.87,0-2.92,1.05-2.93,2.92,0,3.25,0,6.51,0,9.76,0,.23.02.46.04.73h13.48ZM301.88,313.05c-.03.12-.05.18-.05.25-.02,2.82-1.15,5.06-3.47,6.7-.14.1-.21.49-.14.69.99,3.14,2.02,6.28,3.02,9.42.14.43.36.51.77.51,1.62-.02,3.25-.02,4.87,0,.46,0,.66-.15.79-.58.99-3.09,1.99-6.19,3.02-9.27.14-.43.08-.65-.3-.91-1.73-1.18-2.78-2.83-3.18-4.87-.12-.63-.15-1.28-.22-1.95h-5.09Z"/>
        <path class="cls-10" d="M304.43,365.75c4.73,0,9.46,0,14.18,0,1.06,0,1.59.31,1.82,1.08.22.71-.04,1.31-.86,1.88-3.13,2.19-6.25,4.41-9.42,6.56-3.65,2.47-8.09,2.38-11.69-.14-3.06-2.14-6.12-4.27-9.18-6.41-.81-.57-1.09-1.19-.87-1.88.22-.72.76-1.09,1.61-1.09,4.38,0,8.75,0,13.13,0,.42,0,.85,0,1.27,0h0ZM314,368.88h-19.15c2.16,1.48,4.09,2.95,6.16,4.19,2.22,1.32,4.63,1.31,6.85,0,2.07-1.23,3.99-2.71,6.14-4.19Z"/>
        <path class="cls-10" d="M287.86,356.36v-2.96h33.11v2.96h-33.11Z"/>
        <path class="cls-10" d="M320.99,359.61v2.96h-33.1v-2.96h33.1Z"/>
        <path class="cls-9" d="M314.89,285.18v3.12c.85-.17,1.69-.25,2.46-.51,2.5-.87,4.15-2.6,4.9-5.13.15-.51.39-.65.88-.65,3.43,0,5.73,3.73,4.18,6.77-.19.37-.42.52-.86.57-1.92.2-3.55,1-4.93,2.48.76.68,1.51,1.34,2.28,2.03,1.14-1.09,2.44-1.63,4-1.47,2.18.23,3.86,1.9,4.15,4.13.26,2.06-1.06,4.16-3.03,4.88-.42.15-.72.1-1.08-.19-1.33-1.04-2.87-1.55-4.63-1.6v3c.28.05.6.11.92.17,2.37.5,3.93,2.73,3.64,5.18-.28,2.32-2.38,4.1-4.74,4.06-.53,0-.65-.28-.77-.7-.94-3.15-3.73-5.32-7.01-5.49-.09,0-.18.01-.32.03v2.75c1,.46,2.02.75,2.83,1.34,1.76,1.29,2.25,3.62,1.35,5.55-.92,1.98-3.08,3.04-5.27,2.61-2.03-.4-3.65-2.25-3.68-4.42-.05-4.85-.04-9.69-.01-14.54,0-1.5,1.09-2.59,2.47-2.67,1.36-.08,2.44.83,2.74,2.31.01.07.04.13.08.23h2.92c.54-3.76-3.63-6.36-8.15-5.08-.02-.18-.07-.35-.07-.52,0-4.26-.02-8.52,0-12.78,0-1.91.84-3.4,2.57-4.29,1.62-.83,3.23-.72,4.75.28,1.64,1.08,2.42,3.11,1.94,4.98-.48,1.89-2.1,3.29-4.05,3.51-.12.01-.23.03-.43.05Z"/>
        <path class="cls-9" d="M285.69,302.63v-2.99c-1.43-.02-2.71.37-3.91,1.05-.08.05-.16.1-.24.15-1.24.8-1.84.75-2.99-.25-2-1.73-2.23-4.62-.53-6.61,1.67-1.96,4.62-2.18,6.64-.48.12.1.25.2.4.33.75-.66,1.48-1.31,2.26-2-1.34-1.49-2.99-2.29-4.92-2.49-.44-.05-.67-.2-.86-.57-1.57-3.02.75-6.78,4.18-6.78.49,0,.73.14.88.65.92,3.15,3.81,5.45,6.89,5.54.14,0,.27-.01.46-.02v-2.85c-.79-.28-1.58-.45-2.27-.82-1.91-1.03-2.78-3.33-2.12-5.37.68-2.12,2.67-3.47,4.85-3.3,2.17.17,3.98,1.88,4.26,4.03.04.3.07.61.07.91,0,4.17,0,8.33,0,12.5,0,.21-.02.41-.04.72-2.35-.95-4.52-.76-6.41.91-1.2,1.05-1.82,2.42-1.86,4.1h3.03c.14-.96.55-1.74,1.44-2.2,1.55-.81,3.44.09,3.76,1.81.05.27.08.56.08.84,0,4.64,0,9.27,0,13.91,0,2.53-1.67,4.48-4.05,4.82-2.47.35-4.85-1.34-5.25-3.73-.44-2.59,1.15-4.95,3.69-5.46.27-.05.55-.09.84-.14v-2.96c-1.13-.09-2.17.18-3.14.64-2.11.99-3.56,2.58-4.21,4.83-.17.59-.47.7-1,.68-2.49-.12-4.38-1.94-4.56-4.41-.17-2.34,1.49-4.41,3.89-4.85.23-.04.46-.08.73-.13Z"/>
      </g>
      <path class="cls-10" d="M304.77,479.97c-22.39,0-43.13-18.81-58.39-52.97-14.75-33-22.87-76.78-22.87-123.27s8.12-90.27,22.87-123.27c15.27-34.16,36-52.97,58.39-52.97s43.13,18.81,58.39,52.97c14.75,33,22.87,76.78,22.87,123.28s-8.12,90.27-22.87,123.27c-15.27,34.16-36.01,52.97-58.39,52.97ZM304.77,136.51c-18.61,0-36.42,16.91-50.14,47.62-14.24,31.87-22.09,74.34-22.09,119.59s7.84,87.72,22.09,119.59c13.72,30.71,31.53,47.62,50.14,47.62s36.42-16.91,50.14-47.62c14.24-31.87,22.09-74.34,22.09-119.59s-7.84-87.72-22.09-119.59c-13.73-30.71-31.53-47.62-50.14-47.62Z"/>
      <path class="cls-11" d="M407.91,424.27c-39.19,0-92.86-17.61-146.7-50.82-88.58-54.64-139.23-127.82-115.31-166.61,23.92-38.78,112.05-26.37,200.64,28.27,88.58,54.64,139.24,127.82,115.31,166.61-9.38,15.21-28.65,22.55-53.94,22.55ZM265.95,365.76c40.67,25.08,82.96,41.94,119.1,47.47,34.32,5.25,59.5-.67,69.1-16.25,9.61-15.58,3.6-40.74-16.49-69.05-21.16-29.81-55.21-60.04-95.87-85.13-40.67-25.08-82.96-41.94-119.1-47.47-34.31-5.25-59.5.67-69.1,16.25-9.61,15.58-3.6,40.74,16.49,69.05,21.16,29.81,55.21,60.04,95.87,85.13h0Z"/>
      <g>
        <path class="cls-10" d="M340.89,282.33c-.64-3.76-1.35-7.51-1.89-11.28-.26-1.76-1.08-3.07-2.41-4.16-1.67-1.36-3.58-2.28-5.57-3.04-4.95-1.88-10.11-2.84-15.36-3.41-4.58-.5-9.16-.72-13.76-.58-4.01.12-8,.41-11.96,1.01-3.67.56-7.28,1.32-10.79,2.55-2.59.91-5.1,1.98-7.19,3.84-.93.83-1.65,1.81-1.89,3.07-.18.95-.29,1.92-.45,2.87-.75,4.45-1.5,8.9-2.25,13.36-.2,1.2-.41,2.4-.64,3.78,1.66-1.91,3.67-2.93,5.78-3.76,5.51-2.18,11.3-3.13,17.14-3.8,2.65-.3,5.32-.54,7.98-.65,4.77-.2,9.56-.3,14.33.09,3.43.28,6.85.58,10.27.96,3.96.44,7.85,1.25,11.64,2.47,2.99.97,5.94,2.07,8.27,4.57-.02-.31,0-.49-.04-.67-.4-2.4-.81-4.81-1.22-7.21Z"/>
        <path class="cls-10" d="M369.09,264.54c-.96-.45-1.91-.93-2.86-1.4-11.96-5.88-23.92-11.76-35.88-17.64-8.41-4.14-16.82-8.29-25.25-12.4-.2-.1-.47-.14-.73-.12-.26-.01-.53.03-.73.12-8.43,4.11-16.83,8.26-25.25,12.4-11.96,5.88-23.92,11.76-35.88,17.64-.95.47-1.9.95-2.86,1.4-.51.24-.7.6-.66,1.14.04.52.39.74.82.87,2.89.89,5.79,1.78,8.68,2.68v10.38c-1.35.39-2.34,1.6-2.34,3.05,0,.86.35,1.64.92,2.21,0,.09,0,.13-.01.22-.39.3-.5.9-.49,1.56.02.86,0,1.72,0,2.58,0,.58.03,1.12.52,1.55l-1.13,26.82,7.91-.08-2.25-26.55c.02-.07.05-.13.09-.17.5-.41.55-.95.54-1.53-.02-.86-.03-1.72,0-2.58.03-.67-.07-1.27-.61-1.7.65-.58,1.06-1.41,1.06-2.34,0-1.44-.99-2.66-2.34-3.05v-9.8c3.75,1.16,7.49,2.31,11.24,3.47,2.05.63,4.09,1.27,6.23,1.93.18-1.02.36-1.99.52-2.96.12-.73.17-1.49.35-2.21.46-1.86,1.72-3.15,3.2-4.24,2.68-1.97,5.73-3.14,8.89-4.06,2.94-.86,5.93-1.45,8.95-1.89.02.02.03.03.05.05,3.77-.58,7.57-.88,11.38-1,3.16-.1,6.31-.07,9.45.11.15,0,.3.02.45.03.27.02.54.04.8.05,1.47.1,2.94.24,4.41.41,3.94.45,7.82,1.13,11.62,2.24,3.16.92,6.21,2.09,8.89,4.06,1.48,1.09,2.74,2.39,3.2,4.24.18.72.23,1.47.35,2.21.16.97.34,1.94.52,2.96,2.14-.66,4.18-1.3,6.23-1.93,7.26-2.24,14.53-4.48,21.79-6.72.43-.13.78-.35.82-.87.04-.54-.15-.9-.66-1.14Z"/>
      </g>
      <path class="cls-6" d="M199.83,424.27c-25.3,0-44.55-7.33-53.94-22.55-23.92-38.78,26.73-111.97,115.31-166.61,88.59-54.64,176.71-67.06,200.64-28.27,23.92,38.79-26.73,111.97-115.31,166.61h0c-53.83,33.21-107.51,50.82-146.7,50.82ZM407.98,193.46c-7.06,0-14.74.62-22.93,1.87-36.14,5.53-78.43,22.39-119.1,47.47-40.67,25.08-74.71,55.31-95.87,85.13-20.09,28.3-26.1,53.47-16.49,69.05,9.61,15.58,34.8,21.5,69.1,16.25,36.14-5.53,78.43-22.39,119.1-47.47,40.67-25.08,74.71-55.31,95.87-85.13,20.09-28.3,26.1-53.47,16.49-69.05-7.31-11.86-23.65-18.12-46.17-18.12Z"/>
      <g>
        <circle class="cls-9" cx="210.04" cy="186.77" r="18.07"/>
        <circle class="cls-9" cx="447.07" cy="275.82" r="18.07"/>
        <circle class="cls-9" cx="264.74" cy="446.28" r="18.07"/>
      </g>
    </g>
    <text class="cls-3" transform="translate(109.75 482.15) rotate(42.63)"><tspan x="0" y="0">G</tspan></text>
    <text class="cls-3" transform="translate(148.82 515.66) rotate(34.06)"><tspan x="0" y="0">I</tspan></text>
    <text class="cls-3" transform="translate(172.4 531.5) rotate(25.49)"><tspan x="0" y="0">G</tspan></text>
    <text class="cls-3" transform="translate(220.43 552.9) rotate(14.22)"><tspan x="0" y="0">A</tspan></text>
    <text class="cls-3" transform="translate(271.49 564.43) rotate(3.01)"><tspan x="0" y="0">V</tspan></text>
    <text class="cls-3" transform="translate(323.02 565.66) rotate(-7.28)"><tspan x="0" y="0">E</tspan></text>
    <text class="cls-3" transform="translate(363.38 559.93) rotate(-16.03)"><tspan x="0" y="0">R</tspan></text>
    <text class="cls-3" transform="translate(407.9 545.88) rotate(-25.85)"><tspan x="0" y="0">S</tspan></text>
    <text class="cls-3" transform="translate(446.7 525.57) rotate(-33.58)"><tspan x="0" y="0">I</tspan></text>
    <text class="cls-3" transform="translate(469.84 509.83) rotate(-41.2)"><tspan x="0" y="0">T</tspan></text>
    <text class="cls-3" transform="translate(502.28 480.22) rotate(-51.19)"><tspan x="0" y="0">Y</tspan></text>
    <circle class="cls-5" cx="303.87" cy="303.73" r="208.9"/>
    <g>
      <g>
        <path class="cls-10" d="M304.37,350.18c-4.78,0-9.55,0-14.33,0-3.46,0-5.82-2.41-5.83-5.85,0-2.55.05-5.11-.11-7.65-.2-3-1.63-5.43-3.96-7.33-9.51-7.79-14.44-17.81-14.63-30.05-.28-18.43,13.29-34.89,31.51-38.2,12.96-2.35,24.4.97,34.09,9.85,5.81,5.32,9.57,11.93,11.26,19.62,2.33,10.62.53,20.55-5.35,29.71-2.19,3.42-4.94,6.37-8.12,8.91-2.85,2.27-4.24,5.24-4.26,8.85-.01,2.15,0,4.31,0,6.46,0,3.23-2.46,5.67-5.72,5.68-4.85,0-9.69,0-14.54,0ZM294.58,347.13c0-.34,0-.59,0-.84,0-3.3,0-6.6,0-9.9,0-1.99.82-3.58,2.44-4.74.37-.27.8-.47,1.21-.71-.02-.12-.03-.21-.06-.3-.96-2.96-1.93-5.92-2.87-8.88-.13-.42-.32-.53-.75-.51-3.81.18-6.87-1.98-7.97-5.61-.13-.44-.3-.56-.77-.57-4.63-.03-8.03-3.61-7.79-8.21.05-.9.32-1.78.49-2.71-2.93-1.43-4.67-3.77-4.68-7.11-.01-3.37,1.75-5.73,4.76-7.2-.04-.14-.07-.25-.11-.36-1.86-5.3,1.72-10.43,7.35-10.52.48,0,.62-.18.75-.6,1-3.3,3.87-5.52,7.23-5.61,4.47-.12,8,3.36,8.01,7.92,0,9.41,0,18.83,0,28.24,0,.32,0,.64,0,1h5.22c0-.34,0-.63,0-.93,0-9.39,0-18.78,0-28.17,0-.61.03-1.22.15-1.81.73-3.56,3.7-6.09,7.28-6.24,3.56-.15,6.72,2.09,7.77,5.54.16.52.37.66.91.67,4.33.03,7.74,3.45,7.68,7.76-.01,1.03-.28,2.06-.45,3.16,2.89,1.42,4.64,3.79,4.63,7.15,0,3.36-1.78,5.71-4.76,7.17.03.12.05.19.07.26,1.94,5.36-1.64,10.54-7.35,10.6-.47,0-.57.18-.69.57-1.07,3.6-4.29,5.86-7.98,5.6-.45-.03-.61.12-.73.52-.87,2.72-1.76,5.43-2.64,8.14-.11.35-.21.7-.32,1.05,2.71,1.26,3.76,3.37,3.68,6.21-.08,3.02-.02,6.04-.02,9.06,0,.27,0,.55,0,.91,1.56,0,3.03,0,4.5,0,1.72,0,2.77-1.05,2.77-2.76,0-2.11-.06-4.22.02-6.32.05-1.28.19-2.57.48-3.82.79-3.3,2.87-5.71,5.42-7.91,10.07-8.71,14.2-19.76,12.32-32.86-1.18-8.23-5.08-15.2-11.31-20.75-8.57-7.63-18.65-10.6-30-8.78-9.14,1.47-16.63,5.97-22.3,13.25-6.58,8.45-8.9,18.05-6.96,28.56,1.6,8.66,6.03,15.68,12.88,21.23,3.07,2.49,4.84,5.73,5.08,9.67.16,2.61.07,5.24.1,7.86.02,1.44.99,2.53,2.43,2.59,1.57.07,3.15.01,4.85.01ZM314.89,285.18c.2-.02.32-.04.43-.05,1.95-.22,3.56-1.62,4.05-3.51.48-1.87-.3-3.9-1.94-4.98-1.52-1-3.13-1.12-4.75-.28-1.72.89-2.56,2.37-2.57,4.29-.02,4.26,0,8.52,0,12.78,0,.17.04.34.07.52,4.52-1.28,8.68,1.32,8.15,5.08h-2.92c-.03-.1-.06-.17-.08-.23-.3-1.48-1.38-2.38-2.74-2.31-1.38.08-2.46,1.17-2.47,2.67-.03,4.85-.04,9.69.01,14.54.02,2.17,1.65,4.02,3.68,4.42,2.19.43,4.34-.63,5.27-2.61.9-1.93.41-4.26-1.35-5.55-.8-.59-1.82-.88-2.83-1.34v-2.75c.14-.01.23-.03.32-.03,3.29.17,6.07,2.35,7.01,5.49.12.42.24.69.77.7,2.36.04,4.46-1.74,4.74-4.06.3-2.45-1.27-4.68-3.64-5.18-.31-.07-.63-.12-.92-.17v-3c1.76.05,3.29.56,4.63,1.6.36.28.66.34,1.08.19,1.98-.72,3.29-2.82,3.03-4.88-.28-2.23-1.97-3.91-4.15-4.13-1.56-.16-2.86.37-4,1.47-.77-.69-1.52-1.35-2.28-2.03,1.38-1.48,3.01-2.28,4.93-2.48.44-.04.67-.2.86-.57,1.55-3.04-.75-6.77-4.18-6.77-.5,0-.73.14-.88.65-.76,2.52-2.41,4.25-4.9,5.13-.77.27-1.61.34-2.46.51v-3.12ZM285.69,302.63c-.27.05-.5.09-.73.13-2.41.45-4.06,2.51-3.89,4.85.18,2.47,2.07,4.29,4.56,4.41.53.03.83-.09,1-.68.64-2.25,2.1-3.84,4.21-4.83.98-.46,2.01-.73,3.14-.64v2.96c-.3.05-.57.09-.84.14-2.54.51-4.12,2.86-3.69,5.46.4,2.39,2.78,4.07,5.25,3.73,2.38-.33,4.04-2.29,4.05-4.82.01-4.64,0-9.27,0-13.91,0-.28-.03-.56-.08-.84-.32-1.72-2.21-2.62-3.76-1.81-.89.46-1.3,1.24-1.44,2.2h-3.03c.04-1.68.66-3.04,1.86-4.1,1.9-1.67,4.07-1.86,6.41-.91.02-.3.04-.51.04-.72,0-4.17,0-8.33,0-12.5,0-.3-.03-.61-.07-.91-.28-2.15-2.08-3.85-4.26-4.03-2.18-.17-4.17,1.18-4.85,3.3-.66,2.04.21,4.33,2.12,5.37.68.37,1.47.54,2.27.82v2.85c-.19,0-.32.02-.46.02-3.08-.09-5.97-2.39-6.89-5.54-.15-.51-.39-.65-.88-.65-3.43,0-5.74,3.75-4.18,6.78.19.37.42.52.86.57,1.93.2,3.58,1,4.92,2.49-.78.69-1.51,1.34-2.26,2-.16-.13-.28-.23-.4-.33-2.03-1.7-4.97-1.48-6.64.48-1.69,1.99-1.46,4.88.53,6.61,1.15,1,1.75,1.05,2.99.25.08-.05.16-.1.24-.15,1.2-.68,2.47-1.07,3.91-1.05v2.99ZM311.17,347.08c.01-.27.04-.5.04-.72,0-3.25,0-6.51,0-9.76,0-1.86-1.05-2.91-2.93-2.92-2.56,0-5.13,0-7.69,0-1.87,0-2.92,1.05-2.93,2.92,0,3.25,0,6.51,0,9.76,0,.23.02.46.04.73h13.48ZM301.88,313.05c-.03.12-.05.18-.05.25-.02,2.82-1.15,5.06-3.47,6.7-.14.1-.21.49-.14.69.99,3.14,2.02,6.28,3.02,9.42.14.43.36.51.77.51,1.62-.02,3.25-.02,4.87,0,.46,0,.66-.15.79-.58.99-3.09,1.99-6.19,3.02-9.27.14-.43.08-.65-.3-.91-1.73-1.18-2.78-2.83-3.18-4.87-.12-.63-.15-1.28-.22-1.95h-5.09Z"/>
        <path class="cls-10" d="M304.43,365.75c4.73,0,9.46,0,14.18,0,1.06,0,1.59.31,1.82,1.08.22.71-.04,1.31-.86,1.88-3.13,2.19-6.25,4.41-9.42,6.56-3.65,2.47-8.09,2.38-11.69-.14-3.06-2.14-6.12-4.27-9.18-6.41-.81-.57-1.09-1.19-.87-1.88.22-.72.76-1.09,1.61-1.09,4.38,0,8.75,0,13.13,0,.42,0,.85,0,1.27,0h0ZM314,368.88h-19.15c2.16,1.48,4.09,2.95,6.16,4.19,2.22,1.32,4.63,1.31,6.85,0,2.07-1.23,3.99-2.71,6.14-4.19Z"/>
        <path class="cls-10" d="M287.86,356.36v-2.96h33.11v2.96h-33.11Z"/>
        <path class="cls-10" d="M320.99,359.61v2.96h-33.1v-2.96h33.1Z"/>
        <path class="cls-9" d="M314.89,285.18v3.12c.85-.17,1.69-.25,2.46-.51,2.5-.87,4.15-2.6,4.9-5.13.15-.51.39-.65.88-.65,3.43,0,5.73,3.73,4.18,6.77-.19.37-.42.52-.86.57-1.92.2-3.55,1-4.93,2.48.76.68,1.51,1.34,2.28,2.03,1.14-1.09,2.44-1.63,4-1.47,2.18.23,3.86,1.9,4.15,4.13.26,2.06-1.06,4.16-3.03,4.88-.42.15-.72.1-1.08-.19-1.33-1.04-2.87-1.55-4.63-1.6v3c.28.05.6.11.92.17,2.37.5,3.93,2.73,3.64,5.18-.28,2.32-2.38,4.1-4.74,4.06-.53,0-.65-.28-.77-.7-.94-3.15-3.73-5.32-7.01-5.49-.09,0-.18.01-.32.03v2.75c1,.46,2.02.75,2.83,1.34,1.76,1.29,2.25,3.62,1.35,5.55-.92,1.98-3.08,3.04-5.27,2.61-2.03-.4-3.65-2.25-3.68-4.42-.05-4.85-.04-9.69-.01-14.54,0-1.5,1.09-2.59,2.47-2.67,1.36-.08,2.44.83,2.74,2.31.01.07.04.13.08.23h2.92c.54-3.76-3.63-6.36-8.15-5.08-.02-.18-.07-.35-.07-.52,0-4.26-.02-8.52,0-12.78,0-1.91.84-3.4,2.57-4.29,1.62-.83,3.23-.72,4.75.28,1.64,1.08,2.42,3.11,1.94,4.98-.48,1.89-2.1,3.29-4.05,3.51-.12.01-.23.03-.43.05Z"/>
        <path class="cls-9" d="M285.69,302.63v-2.99c-1.43-.02-2.71.37-3.91,1.05-.08.05-.16.1-.24.15-1.24.8-1.84.75-2.99-.25-2-1.73-2.23-4.62-.53-6.61,1.67-1.96,4.62-2.18,6.64-.48.12.1.25.2.4.33.75-.66,1.48-1.31,2.26-2-1.34-1.49-2.99-2.29-4.92-2.49-.44-.05-.67-.2-.86-.57-1.57-3.02.75-6.78,4.18-6.78.49,0,.73.14.88.65.92,3.15,3.81,5.45,6.89,5.54.14,0,.27-.01.46-.02v-2.85c-.79-.28-1.58-.45-2.27-.82-1.91-1.03-2.78-3.33-2.12-5.37.68-2.12,2.67-3.47,4.85-3.3,2.17.17,3.98,1.88,4.26,4.03.04.3.07.61.07.91,0,4.17,0,8.33,0,12.5,0,.21-.02.41-.04.72-2.35-.95-4.52-.76-6.41.91-1.2,1.05-1.82,2.42-1.86,4.1h3.03c.14-.96.55-1.74,1.44-2.2,1.55-.81,3.44.09,3.76,1.81.05.27.08.56.08.84,0,4.64,0,9.27,0,13.91,0,2.53-1.67,4.48-4.05,4.82-2.47.35-4.85-1.34-5.25-3.73-.44-2.59,1.15-4.95,3.69-5.46.27-.05.55-.09.84-.14v-2.96c-1.13-.09-2.17.18-3.14.64-2.11.99-3.56,2.58-4.21,4.83-.17.59-.47.7-1,.68-2.49-.12-4.38-1.94-4.56-4.41-.17-2.34,1.49-4.41,3.89-4.85.23-.04.46-.08.73-.13Z"/>
      </g>
      <path class="cls-10" d="M304.77,479.97c-22.39,0-43.13-18.81-58.39-52.97-14.75-33-22.87-76.78-22.87-123.27s8.12-90.27,22.87-123.27c15.27-34.16,36-52.97,58.39-52.97s43.13,18.81,58.39,52.97c14.75,33,22.87,76.78,22.87,123.28s-8.12,90.27-22.87,123.27c-15.27,34.16-36.01,52.97-58.39,52.97ZM304.77,136.51c-18.61,0-36.42,16.91-50.14,47.62-14.24,31.87-22.09,74.34-22.09,119.59s7.84,87.72,22.09,119.59c13.72,30.71,31.53,47.62,50.14,47.62s36.42-16.91,50.14-47.62c14.24-31.87,22.09-74.34,22.09-119.59s-7.84-87.72-22.09-119.59c-13.73-30.71-31.53-47.62-50.14-47.62Z"/>
      <path class="cls-11" d="M407.91,424.27c-39.19,0-92.86-17.61-146.7-50.82-88.58-54.64-139.23-127.82-115.31-166.61,23.92-38.78,112.05-26.37,200.64,28.27,88.58,54.64,139.24,127.82,115.31,166.61-9.38,15.21-28.65,22.55-53.94,22.55ZM265.95,365.76c40.67,25.08,82.96,41.94,119.1,47.47,34.32,5.25,59.5-.67,69.1-16.25,9.61-15.58,3.6-40.74-16.49-69.05-21.16-29.81-55.21-60.04-95.87-85.13-40.67-25.08-82.96-41.94-119.1-47.47-34.31-5.25-59.5.67-69.1,16.25-9.61,15.58-3.6,40.74,16.49,69.05,21.16,29.81,55.21,60.04,95.87,85.13h0Z"/>
      <g>
        <path class="cls-10" d="M340.89,282.33c-.64-3.76-1.35-7.51-1.89-11.28-.26-1.76-1.08-3.07-2.41-4.16-1.67-1.36-3.58-2.28-5.57-3.04-4.95-1.88-10.11-2.84-15.36-3.41-4.58-.5-9.16-.72-13.76-.58-4.01.12-8,.41-11.96,1.01-3.67.56-7.28,1.32-10.79,2.55-2.59.91-5.1,1.98-7.19,3.84-.93.83-1.65,1.81-1.89,3.07-.18.95-.29,1.92-.45,2.87-.75,4.45-1.5,8.9-2.25,13.36-.2,1.2-.41,2.4-.64,3.78,1.66-1.91,3.67-2.93,5.78-3.76,5.51-2.18,11.3-3.13,17.14-3.8,2.65-.3,5.32-.54,7.98-.65,4.77-.2,9.56-.3,14.33.09,3.43.28,6.85.58,10.27.96,3.96.44,7.85,1.25,11.64,2.47,2.99.97,5.94,2.07,8.27,4.57-.02-.31,0-.49-.04-.67-.4-2.4-.81-4.81-1.22-7.21Z"/>
        <path class="cls-10" d="M369.09,264.54c-.96-.45-1.91-.93-2.86-1.4-11.96-5.88-23.92-11.76-35.88-17.64-8.41-4.14-16.82-8.29-25.25-12.4-.2-.1-.47-.14-.73-.12-.26-.01-.53.03-.73.12-8.43,4.11-16.83,8.26-25.25,12.4-11.96,5.88-23.92,11.76-35.88,17.64-.95.47-1.9.95-2.86,1.4-.51.24-.7.6-.66,1.14.04.52.39.74.82.87,2.89.89,5.79,1.78,8.68,2.68v10.38c-1.35.39-2.34,1.6-2.34,3.05,0,.86.35,1.64.92,2.21,0,.09,0,.13-.01.22-.39.3-.5.9-.49,1.56.02.86,0,1.72,0,2.58,0,.58.03,1.12.52,1.55l-1.13,26.82,7.91-.08-2.25-26.55c.02-.07.05-.13.09-.17.5-.41.55-.95.54-1.53-.02-.86-.03-1.72,0-2.58.03-.67-.07-1.27-.61-1.7.65-.58,1.06-1.41,1.06-2.34,0-1.44-.99-2.66-2.34-3.05v-9.8c3.75,1.16,7.49,2.31,11.24,3.47,2.05.63,4.09,1.27,6.23,1.93.18-1.02.36-1.99.52-2.96.12-.73.17-1.49.35-2.21.46-1.86,1.72-3.15,3.2-4.24,2.68-1.97,5.73-3.14,8.89-4.06,2.94-.86,5.93-1.45,8.95-1.89.02.02.03.03.05.05,3.77-.58,7.57-.88,11.38-1,3.16-.1,6.31-.07,9.45.11.15,0,.3.02.45.03.27.02.54.04.8.05,1.47.1,2.94.24,4.41.41,3.94.45,7.82,1.13,11.62,2.24,3.16.92,6.21,2.09,8.89,4.06,1.48,1.09,2.74,2.39,3.2,4.24.18.72.23,1.47.35,2.21.16.97.34,1.94.52,2.96,2.14-.66,4.18-1.3,6.23-1.93,7.26-2.24,14.53-4.48,21.79-6.72.43-.13.78-.35.82-.87.04-.54-.15-.9-.66-1.14Z"/>
      </g>
      <path class="cls-6" d="M199.83,424.27c-25.3,0-44.55-7.33-53.94-22.55-23.92-38.78,26.73-111.97,115.31-166.61,88.59-54.64,176.71-67.06,200.64-28.27,23.92,38.79-26.73,111.97-115.31,166.61h0c-53.83,33.21-107.51,50.82-146.7,50.82ZM407.98,193.46c-7.06,0-14.74.62-22.93,1.87-36.14,5.53-78.43,22.39-119.1,47.47-40.67,25.08-74.71,55.31-95.87,85.13-20.09,28.3-26.1,53.47-16.49,69.05,9.61,15.58,34.8,21.5,69.1,16.25,36.14-5.53,78.43-22.39,119.1-47.47,40.67-25.08,74.71-55.31,95.87-85.13,20.09-28.3,26.1-53.47,16.49-69.05-7.31-11.86-23.65-18.12-46.17-18.12Z"/>
      <g>
        <circle class="cls-9" cx="210.04" cy="186.77" r="18.07"/>
        <circle class="cls-9" cx="447.07" cy="275.82" r="18.07"/>
        <circle class="cls-9" cx="264.74" cy="446.28" r="18.07"/>
      </g>
    </g>
    <g>
      <path class="cls-8" d="M303.22,522.9c65.79,0,124.9-29.13,165.12-75.16h2.49c-40.59,47.14-100.67,77.03-167.61,77.03s-127.02-29.9-167.61-77.03h2.49c40.23,46.03,99.33,75.16,165.12,75.16Z"/>
      <path class="cls-8" d="M303.22,60.71c133.94,0,242.91,108.97,242.91,242.91,0,27.5-4.61,53.94-13.08,78.61,1.94,1.53,3.19,3.89,3.19,6.55,0,4.61-3.74,8.35-8.35,8.35s-8.35-3.74-8.35-8.35,3.74-8.35,8.35-8.35c.65,0,1.29.08,1.9.22,8.25-24.19,12.75-50.09,12.75-77.04,0-131.96-107.36-239.32-239.32-239.32S63.9,171.66,63.9,303.62c0,26.9,4.49,52.77,12.71,76.92.42-.06.84-.11,1.27-.11,4.61,0,8.35,3.74,8.35,8.35s-3.74,8.35-8.35,8.35-8.35-3.74-8.35-8.35c0-2.9,1.48-5.45,3.72-6.95-8.38-24.56-12.94-50.86-12.94-78.22,0-133.94,108.97-242.91,242.91-242.91Z"/>
      <path class="cls-8" d="M46.17,323.34c-.49-6.51-.75-13.08-.75-19.71,0-142.15,115.65-257.79,257.79-257.79s257.79,115.65,257.79,257.79c0,6.63-.25,13.21-.75,19.71h-1.8c.5-6.51.75-13.08.75-19.71,0-141.16-114.84-255.99-255.99-255.99S47.22,162.47,47.22,303.62c0,6.63.25,13.21.75,19.71h-1.8Z"/>
      <path class="cls-8" d="M303.22,576.24c101.3,0,189.86-55.54,236.86-137.76h2.19c-47.19,83.32-136.66,139.67-239.05,139.67s-191.86-56.35-239.05-139.67h2.19c47,82.22,135.56,137.76,236.86,137.76Z"/>
      <path class="cls-8" d="M570.87,364.8h-.54c.99.65,1.65,1.77,1.65,3.05,0,2.02-1.64,3.65-3.66,3.65s-3.66-1.64-3.66-3.65,1.64-3.66,3.66-3.66c.24,0,.47.03.7.07,4.45-19.51,6.81-39.8,6.81-60.64,0-150.32-122.29-272.62-272.62-272.62S30.6,153.3,30.6,303.62c0,20.81,2.36,41.09,6.79,60.57.02,0,.03,0,.05,0,2.02,0,3.66,1.64,3.66,3.66s-1.64,3.65-3.66,3.65-3.66-1.64-3.66-3.65c0-1.32.71-2.47,1.76-3.11-4.49-19.66-6.87-40.11-6.87-61.11C28.68,152.25,151.84,29.09,303.22,29.09s274.53,123.16,274.53,274.53c0,21.02-2.38,41.49-6.88,61.17Z"/>
      <path class="cls-8" d="M89.95,288.77c0,3.2-2.6,5.8-5.8,5.8s-5.8-2.6-5.8-5.8c0-2.82,2.01-5.17,4.68-5.69,10.4-112.35,105.17-200.61,220.19-200.61s209.73,88.21,220.18,200.51c.08,0,.15-.01.23-.01,3.2,0,5.8,2.6,5.8,5.8s-2.6,5.8-5.8,5.8-5.8-2.6-5.8-5.8c0-2.47,1.55-4.58,3.73-5.41-10.26-111.44-104.25-199.01-218.33-199.01s-207.88,87.4-218.29,198.68c2.84.38,5.03,2.8,5.03,5.74Z"/>
      <circle class="cls-8" cx="47.48" cy="327.76" r="4.41"/>
      <path class="cls-8" d="M558.28,323.35c2.44,0,4.41,1.97,4.41,4.41s-1.97,4.41-4.41,4.41-4.41-1.97-4.41-4.41,1.97-4.41,4.41-4.41Z"/>
    </g>
    <polygon class="cls-8" points="303 29.09 311.34 45.99 330 48.7 316.5 61.86 319.69 80.44 303 71.67 286.31 80.44 289.5 61.86 276 48.7 294.66 45.99 303 29.09"/>
  </g>
</svg>