<svg xmlns="http://www.w3.org/2000/svg" viewBox="0 0 500 500" width="300" height="300">
  <rect width="500" height="500" fill="#f8fafc" rx="20" ry="20"/>
  <rect x="100" y="80" width="300" height="380" fill="#fff" stroke="#e2e8f0" stroke-width="2" rx="10" ry="10"/>
  <rect x="130" y="110" width="240" height="50" fill="#ebf4ff" rx="5" ry="5"/>
  <circle cx="160" cy="135" r="15" fill="#3182ce"/>
  <rect x="185" y="125" width="160" height="10" fill="#a0aec0" rx="2" ry="2"/>
  <rect x="185" y="145" width="120" height="6" fill="#cbd5e0" rx="2" ry="2"/>
  <rect x="130" y="180" width="240" height="30" fill="#f7fafc" rx="5" ry="5"/>
  <rect x="130" y="180" width="8" height="30" fill="#3182ce" rx="2" ry="2"/>
  <rect x="150" y="190" width="150" height="10" fill="#a0aec0" rx="2" ry="2"/>
  <rect x="130" y="230" width="240" height="80" fill="#f7fafc" rx="5" ry="5"/>
  <rect x="130" y="230" width="8" height="80" fill="#3182ce" rx="2" ry="2"/>
  <rect x="150" y="240" width="180" height="10" fill="#a0aec0" rx="2" ry="2"/>
  <rect x="150" y="260" width="200" height="6" fill="#cbd5e0" rx="2" ry="2"/>
  <rect x="150" y="274" width="200" height="6" fill="#cbd5e0" rx="2" ry="2"/>
  <rect x="150" y="288" width="160" height="6" fill="#cbd5e0" rx="2" ry="2"/>
  <rect x="130" y="330" width="240" height="80" fill="#f7fafc" rx="5" ry="5"/>
  <rect x="130" y="330" width="8" height="80" fill="#3182ce" rx="2" ry="2"/>
  <rect x="150" y="340" width="180" height="10" fill="#a0aec0" rx="2" ry="2"/>
  <rect x="150" y="360" width="200" height="6" fill="#cbd5e0" rx="2" ry="2"/>
  <rect x="150" y="374" width="200" height="6" fill="#cbd5e0" rx="2" ry="2"/>
  <rect x="150" y="388" width="160" height="6" fill="#cbd5e0" rx="2" ry="2"/>
  <circle cx="380" cy="40" r="20" fill="#ebf4ff"/>
  <circle cx="40" cy="400" r="30" fill="#ebf4ff"/>
  <circle cx="450" cy="450" r="15" fill="#ebf4ff"/>
</svg>