<svg xmlns="http://www.w3.org/2000/svg" viewBox="0 0 300 400">
  <rect width="300" height="400" fill="#ffffff" rx="5" ry="5"/>
  
  <!-- Header section -->
  <rect x="20" y="20" width="160" height="14" fill="#2d3748" rx="2" ry="2"/>
  <rect x="20" y="40" width="260" height="1" fill="#718096" rx="0" ry="0"/>
  
  <!-- Contact info -->
  <rect x="20" y="50" width="70" height="6" fill="#4a5568" rx="2" ry="2"/>
  <rect x="110" y="50" width="70" height="6" fill="#4a5568" rx="2" ry="2"/>
  <rect x="200" y="50" width="70" height="6" fill="#4a5568" rx="2" ry="2"/>
  
  <!-- Summary section -->
  <rect x="20" y="80" width="100" height="10" fill="#2d3748" rx="2" ry="2"/>
  <rect x="20" y="95" width="260" height="4" fill="#a0aec0" rx="1" ry="1"/>
  <rect x="20" y="104" width="260" height="4" fill="#a0aec0" rx="1" ry="1"/>
  <rect x="20" y="113" width="260" height="4" fill="#a0aec0" rx="1" ry="1"/>
  <rect x="20" y="122" width="200" height="4" fill="#a0aec0" rx="1" ry="1"/>
  
  <!-- Experience section -->
  <rect x="20" y="150" width="130" height="10" fill="#2d3748" rx="2" ry="2"/>
  <rect x="20" y="165" width="260" height="1" fill="#cbd5e0" rx="0" ry="0"/>
  
  <rect x="20" y="175" width="120" height="8" fill="#4a5568" rx="2" ry="2"/>
  <rect x="20" y="188" width="80" height="6" fill="#718096" rx="2" ry="2"/>
  <rect x="220" y="188" width="60" height="6" fill="#a0aec0" rx="2" ry="2"/>
  <rect x="20" y="200" width="260" height="4" fill="#a0aec0" rx="1" ry="1"/>
  <rect x="20" y="209" width="260" height="4" fill="#a0aec0" rx="1" ry="1"/>
  <rect x="20" y="218" width="200" height="4" fill="#a0aec0" rx="1" ry="1"/>
  
  <rect x="20" y="235" width="120" height="8" fill="#4a5568" rx="2" ry="2"/>
  <rect x="20" y="248" width="80" height="6" fill="#718096" rx="2" ry="2"/>
  <rect x="220" y="248" width="60" height="6" fill="#a0aec0" rx="2" ry="2"/>
  <rect x="20" y="260" width="260" height="4" fill="#a0aec0" rx="1" ry="1"/>
  <rect x="20" y="269" width="260" height="4" fill="#a0aec0" rx="1" ry="1"/>
  <rect x="20" y="278" width="200" height="4" fill="#a0aec0" rx="1" ry="1"/>
  
  <!-- Education section -->
  <rect x="20" y="305" width="80" height="10" fill="#2d3748" rx="2" ry="2"/>
  <rect x="20" y="320" width="260" height="1" fill="#cbd5e0" rx="0" ry="0"/>
  
  <rect x="20" y="330" width="100" height="8" fill="#4a5568" rx="2" ry="2"/>
  <rect x="20" y="343" width="90" height="6" fill="#718096" rx="2" ry="2"/>
  <rect x="220" y="343" width="60" height="6" fill="#a0aec0" rx="2" ry="2"/>
  <rect x="20" y="354" width="120" height="4" fill="#a0aec0" rx="1" ry="1"/>
</svg>