<svg xmlns="http://www.w3.org/2000/svg" viewBox="0 0 300 400">
  <rect width="300" height="400" fill="#ffffff" rx="5" ry="5"/>
  
  <!-- Header section with blue accent -->
  <rect x="0" y="0" width="300" height="70" fill="#3182ce" rx="5" ry="5"/>
  <rect x="20" y="20" width="150" height="12" fill="#ffffff" rx="2" ry="2"/>
  <rect x="20" y="40" width="100" height="8" fill="#e2e8f0" rx="2" ry="2"/>
  
  <!-- Contact info bar -->
  <rect x="0" y="70" width="300" height="25" fill="#ebf8ff" rx="0" ry="0"/>
  <rect x="20" y="79" width="70" height="6" fill="#4a5568" rx="2" ry="2"/>
  <rect x="110" y="79" width="70" height="6" fill="#4a5568" rx="2" ry="2"/>
  <rect x="200" y="79" width="70" height="6" fill="#4a5568" rx="2" ry="2"/>
  
  <!-- Summary section -->
  <rect x="20" y="115" width="70" height="10" fill="#2d3748" rx="2" ry="2"/>
  <rect x="20" y="130" width="260" height="4" fill="#cbd5e0" rx="1" ry="1"/>
  <rect x="20" y="139" width="260" height="4" fill="#cbd5e0" rx="1" ry="1"/>
  <rect x="20" y="148" width="260" height="4" fill="#cbd5e0" rx="1" ry="1"/>
  <rect x="20" y="157" width="200" height="4" fill="#cbd5e0" rx="1" ry="1"/>
  
  <!-- Skills section -->
  <rect x="20" y="185" width="70" height="10" fill="#2d3748" rx="2" ry="2"/>
  <rect x="20" y="200" width="40" height="6" fill="#3182ce" rx="3" ry="3"/>
  <rect x="65" y="200" width="40" height="6" fill="#3182ce" rx="3" ry="3"/>
  <rect x="110" y="200" width="40" height="6" fill="#3182ce" rx="3" ry="3"/>
  <rect x="155" y="200" width="40" height="6" fill="#3182ce" rx="3" ry="3"/>
  <rect x="20" y="211" width="40" height="6" fill="#3182ce" rx="3" ry="3"/>
  <rect x="65" y="211" width="40" height="6" fill="#3182ce" rx="3" ry="3"/>
  <rect x="110" y="211" width="40" height="6" fill="#3182ce" rx="3" ry="3"/>
  
  <!-- Experience section -->
  <rect x="20" y="240" width="100" height="10" fill="#2d3748" rx="2" ry="2"/>
  <rect x="20" y="255" width="120" height="8" fill="#4a5568" rx="2" ry="2"/>
  <rect x="20" y="268" width="80" height="6" fill="#718096" rx="2" ry="2"/>
  <circle cx="25" cy="283" r="2" fill="#4a5568"/>
  <rect x="32" y="280" width="230" height="4" fill="#a0aec0" rx="1" ry="1"/>
  <circle cx="25" cy="293" r="2" fill="#4a5568"/>
  <rect x="32" y="290" width="220" height="4" fill="#a0aec0" rx="1" ry="1"/>
  
  <!-- Education section -->
  <rect x="20" y="315" width="80" height="10" fill="#2d3748" rx="2" ry="2"/>
  <rect x="20" y="330" width="100" height="8" fill="#4a5568" rx="2" ry="2"/>
  <rect x="20" y="343" width="90" height="6" fill="#718096" rx="2" ry="2"/>
  <rect x="20" y="354" width="70" height="6" fill="#a0aec0" rx="2" ry="2"/>
</svg>